<svg xmlns="http://www.w3.org/2000/svg" width="50" height="31.181" viewBox="-8 0 30 31.181" style="&#10;    width: 43px;&#10;"><g transform="translate(-45 -24.871)"><path d="M8.906,5.937H2.969A2.97,2.97,0,0,1,0,2.969H0A2.97,2.97,0,0,1,2.969,0H8.906a2.97,2.97,0,0,1,2.969,2.969h0A2.97,2.97,0,0,1,8.906,5.937Z" transform="translate(30 24.871)" fill="#005464"/><path d="M8.906,55.937H2.969A2.97,2.97,0,0,1,0,52.969H0A2.97,2.97,0,0,1,2.969,50H8.906a2.97,2.97,0,0,1,2.969,2.969h0A2.97,2.97,0,0,1,8.906,55.937Z" transform="translate(30 -13.255)" fill="#005464"/><path d="M8.906,105.937H2.969A2.97,2.97,0,0,1,0,102.968H0A2.97,2.97,0,0,1,2.969,100H8.906a2.97,2.97,0,0,1,2.969,2.969h0A2.97,2.97,0,0,1,8.906,105.937Z" transform="translate(30 -51.381)" fill="#005464"/><path d="M71.406,5.937H65.468A2.97,2.97,0,0,1,62.5,2.969h0A2.97,2.97,0,0,1,65.468,0h5.937a2.97,2.97,0,0,1,2.969,2.969h0A2.97,2.97,0,0,1,71.406,5.937Z" transform="translate(-17.657 24.871)" fill="#005464"/><path d="M71.406,55.937H65.468A2.97,2.97,0,0,1,62.5,52.969h0A2.97,2.97,0,0,1,65.468,50h5.937a2.97,2.97,0,0,1,2.969,2.969h0A2.97,2.97,0,0,1,71.406,55.937Z" transform="translate(-17.657 -13.255)" fill="#005464"/><path d="M71.406,105.937H65.468a2.97,2.97,0,0,1-2.969-2.969h0A2.97,2.97,0,0,1,65.468,100h5.937a2.97,2.97,0,0,1,2.969,2.969h0A2.97,2.97,0,0,1,71.406,105.937Z" transform="translate(-17.657 -51.381)" fill="#005464"/><path d="M133.906,5.937h-5.937A2.97,2.97,0,0,1,125,2.969h0A2.97,2.97,0,0,1,127.968,0h5.937a2.97,2.97,0,0,1,2.968,2.969h0A2.97,2.97,0,0,1,133.906,5.937Z" transform="translate(-65.315 24.871)" fill="#005464"/><path d="M133.286,52.262l-5.153-2.969a2.985,2.985,0,0,1-1.092-4.061h0A2.985,2.985,0,0,1,131.1,44.14l5.153,2.969a2.985,2.985,0,0,1,1.092,4.061h0A2.985,2.985,0,0,1,133.286,52.262Z" transform="translate(-66.571 -8.488)" fill="#005464"/><path d="M133.286,102.262l-5.153-2.969a2.985,2.985,0,0,1-1.092-4.061h0A2.985,2.985,0,0,1,131.1,94.14l5.153,2.969a2.985,2.985,0,0,1,1.092,4.061h0A2.985,2.985,0,0,1,133.286,102.262Z" transform="translate(-66.571 -46.614)" fill="#005464"/></g></svg>